<?xml version="1.0" encoding="UTF-8"?>
<svg width="360px" height="360px" viewBox="0 0 360 360" version="1.1" xmlns="http://www.w3.org/2000/svg" xmlns:xlink="http://www.w3.org/1999/xlink">
    <!-- Generator: Sketch 52.3 (67297) - http://www.bohemiancoding.com/sketch -->
    <title>icons-dirty/coffee-large</title>
    <desc>Created with Sketch.</desc>
    <g id="coffee-large" stroke="none" stroke-width="1" fill="none" fill-rule="evenodd">
        <path d="M59,64 L300,64 L258.589256,360 L100.410744,360 L59,64 Z M121.5,218 C141.658393,218 158,197.852814 158,173 C158,148.147186 141.658393,128 121.5,128 C101.341607,128 85,148.147186 85,173 C85,197.852814 101.341607,218 121.5,218 Z" id="Combined-Shape" fill="#000000"></path>
        <path d="M288.778774,238 L72.2212263,238 L54,108 L307,108 L288.778774,238 Z M121.5,218 C141.658393,218 158,197.852814 158,173 C158,148.147186 141.658393,128 121.5,128 C101.341607,128 85,148.147186 85,173 C85,197.852814 101.341607,218 121.5,218 Z" id="Combined-Shape" fill="#000000"></path>
        <path d="M283.519756,232.781022 L300.256939,113.218978 L59.7430615,113.218978 L76.4802436,232.781022 L283.519756,232.781022 Z M67.5982389,243 L48,103 L312,103 L292.401761,243 L67.5982389,243 Z" id="Combined-Shape-Copy" fill="#FFFFFF" fill-rule="nonzero"></path>
        <polygon id="Rectangle" fill="#000000" points="49.7608457 26 310.239154 26 312 54 48 54"></polygon>
        <path d="M94.5989746,6.86041262e-15 L264.401025,1.0658141e-14 C272.937155,9.09007954e-15 279.970055,6.70103166 280.382351,15.2271981 L281,28 L78,28 L78.6176487,15.2271981 C79.0299448,6.70103166 86.0628454,8.67348885e-15 94.5989746,7.10542736e-15 Z" id="Rectangle-Copy-2" fill="#000000"></path>
    </g>
</svg>