<?xml version="1.0" encoding="UTF-8"?>
<svg width="360px" height="360px" viewBox="0 0 360 360" version="1.1" xmlns="http://www.w3.org/2000/svg" xmlns:xlink="http://www.w3.org/1999/xlink">
    <!-- Generator: Sketch 52.3 (67297) - http://www.bohemiancoding.com/sketch -->
    <title>icons-dirty/coffee-small</title>
    <desc>Created with Sketch.</desc>
    <g id="coffee-small" stroke="none" stroke-width="1" fill="none" fill-rule="evenodd">
        <g id="Group" transform="translate(0.000000, 136.000000)" fill="#000000">
            <path d="M316.999912,0.191598305 C319.131231,0.16097027 321.323913,0.146446992 323.583555,0.146446992 C341.561754,0.146446992 353.6769,14.2029944 357.853248,34.4443427 C361.463757,51.943265 358.742382,72.2495728 350.344118,86.7957934 C335.43796,112.614017 305.383916,124.189154 278.530521,116.187921 C263.186241,135.570864 244.038253,150.438804 222.554461,159 L137.445539,159 C82.6156703,137.150541 43,74.2222805 43,0 L317,0 C317,0.0638744723 316.999971,0.12774058 316.999912,0.191598305 Z M316.008562,20.2211812 C313.146258,49.207087 304.20883,75.910194 290.79599,98.3778723 C307.079111,100.375413 324.013486,92.401785 333.02361,76.7957934 C338.869395,66.6705961 340.921608,51.3574255 338.265831,38.4857659 C335.794026,26.5057604 330.313021,20.146447 323.583555,20.146447 C320.982545,20.146447 318.45736,20.1711191 316.008563,20.2211793 Z" id="Combined-Shape"></path>
            <path d="M0,169 L360,169 L360,169 C360,180.045695 351.045695,189 340,189 L20,189 C8.954305,189 1.3527075e-15,180.045695 0,169 Z" id="Rectangle"></path>
        </g>
    </g>
</svg>