<?xml version="1.0" encoding="UTF-8"?>
<svg width="360px" height="360px" viewBox="0 0 360 360" version="1.1" xmlns="http://www.w3.org/2000/svg" xmlns:xlink="http://www.w3.org/1999/xlink">
    <!-- Generator: Sketch 52.3 (67297) - http://www.bohemiancoding.com/sketch -->
    <title>icons-dirty/computer</title>
    <desc>Created with Sketch.</desc>
    <g id="computer" stroke="none" stroke-width="1" fill="none" fill-rule="evenodd">
        <path d="M47.9437645,215 L312.056236,215 L360,329 L0,329 L47.9437645,215 Z M132.358645,283 L125,318 L235,318 L227.641355,283 L132.358645,283 Z" id="Combined-Shape" fill="#000000"></path>
        <path d="M58,34 L302,34 C307.522847,34 312,38.4771525 312,44 L312,207 L48,207 L48,44 C48,38.4771525 52.4771525,34 58,34 Z M71,55 L71,187 L289,187 L289,55 L71,55 Z" id="Combined-Shape" fill="#000000"></path>
        <path d="M0,329 L360,329 L360,329 C360,334.522847 355.522847,339 350,339 L10,339 C4.4771525,339 6.76353751e-16,334.522847 0,329 Z" id="Rectangle" fill="#000000"></path>
    </g>
</svg>