<?xml version="1.0" encoding="UTF-8"?>
<svg width="360px" height="360px" viewBox="0 0 360 360" version="1.1" xmlns="http://www.w3.org/2000/svg" xmlns:xlink="http://www.w3.org/1999/xlink">
    <!-- Generator: Sketch 52.3 (67297) - http://www.bohemiancoding.com/sketch -->
    <title>icons-dirty/mute</title>
    <desc>Created with Sketch.</desc>
    <g id="mute" stroke="none" stroke-width="1" fill="none" fill-rule="evenodd">
        <path d="M120.611455,104.701553 L224.4375,-1.13686838e-13 L224.4375,208.527597 L356.654788,340.744886 C361.048187,345.138284 361.048187,352.26139 356.654788,356.654788 C352.26139,361.048187 345.138284,361.048187 340.744886,356.654788 L3.45495129,19.3648539 C-0.938446994,14.9714556 -0.938446994,7.84834957 3.45495129,3.45495129 C7.84834957,-0.938446994 14.9714556,-0.938446994 19.3648539,3.45495129 L120.611455,104.701553 Z" id="Path" fill="#000000"></path>
        <path d="M119.319364,134.909461 L96.8193637,112.409461 L112.968,112.409461 L224.4375,0 L224.4375,240.027597 L201.9375,217.527597 L201.9375,54.6439764 L122.34319,134.909461 L119.319364,134.909461 Z M87.4995585,134.909461 L45,134.909461 L45,224.370539 L122.34319,224.370539 L201.9375,304.636024 L201.9375,249.347403 L224.4375,271.847403 L224.4375,359.28 L112.968,246.870539 L22.5,246.870539 L22.5,112.409461 L64.9995585,112.409461 L87.4995585,134.909461 Z" id="Combined-Shape" fill="#000000" fill-rule="nonzero"></path>
    </g>
</svg>