<?xml version="1.0" encoding="UTF-8"?>
<svg width="360px" height="360px" viewBox="0 0 360 360" version="1.1" xmlns="http://www.w3.org/2000/svg" xmlns:xlink="http://www.w3.org/1999/xlink">
    <!-- Generator: Sketch 52.3 (67297) - http://www.bohemiancoding.com/sketch -->
    <title>icons-dirty/pomany</title>
    <desc>Created with Sketch.</desc>
    <g id="pomany" stroke="none" stroke-width="1" fill="none" fill-rule="evenodd">
        <path d="M58.1473281,182.494498 L89.1830165,191.564689 L68.7634217,214.738758 L105.5,197.63444 L142.236578,214.738758 L121.816984,191.564689 L152.251816,182.670098 C186.507903,197.821093 210,228.93188 210,264.850214 C210,315.660411 162.989899,356.850214 105,356.850214 C47.0101013,356.850214 0,315.660411 0,264.850214 C0,228.792546 23.6747118,197.579795 58.1473281,182.494498 Z M64.3637928,179.993408 C75.103628,176.040285 86.7517444,173.60678 98.9576377,173 L95.4155496,181.743626 L64.3637868,179.993411 Z M112.06471,173.055164 C123.948914,173.746943 135.292281,176.17121 145.768781,180.042301 L115.58445,181.743626 L112.06471,173.055164 Z" id="Combined-Shape-Copy-2" fill="#000000"></path>
        <path d="M208.147328,182.494498 L239.183016,191.564689 L218.763422,214.738758 L255.5,197.63444 L292.236578,214.738758 L271.816984,191.564689 L302.251816,182.670098 C336.507903,197.821093 360,228.93188 360,264.850214 C360,315.660411 312.989899,356.850214 255,356.850214 C197.010101,356.850214 150,315.660411 150,264.850214 C150,228.792546 173.674712,197.579795 208.147328,182.494498 Z M214.363793,179.993408 C225.103628,176.040285 236.751744,173.60678 248.957638,173 L245.41555,181.743626 L214.363787,179.993411 Z M262.06471,173.055164 C273.948914,173.746943 285.292281,176.17121 295.768781,180.042301 L265.58445,181.743626 L262.06471,173.055164 Z" id="Combined-Shape-Copy-3" fill="#000000"></path>
        <path d="M208.147328,13.4944977 L239.183016,22.564689 L218.763422,45.7387577 L255.5,28.63444 L292.236578,45.7387577 L271.816984,22.564689 L302.251816,13.670098 C336.507903,28.8210931 360,59.9318804 360,95.8502138 C360,146.660411 312.989899,187.850214 255,187.850214 C197.010101,187.850214 150,146.660411 150,95.8502138 C150,59.7925458 173.674712,28.5797952 208.147328,13.4944977 Z M214.363793,10.9934085 C225.103628,7.04028517 236.751744,4.60677951 248.957638,4 L245.41555,12.7436256 L214.363787,10.9934107 Z M262.06471,4.05516442 C273.948914,4.74694346 285.292281,7.17121023 295.768781,11.0423005 L265.58445,12.7436256 L262.06471,4.05516442 Z" id="Combined-Shape-Copy" fill="#000000"></path>
        <path d="M58.1473281,13.4944977 L89.1830165,22.564689 L68.7634217,45.7387577 L105.5,28.63444 L142.236578,45.7387577 L121.816984,22.564689 L152.251816,13.670098 C186.507903,28.8210931 210,59.9318804 210,95.8502138 C210,146.660411 162.989899,187.850214 105,187.850214 C47.0101013,187.850214 0,146.660411 0,95.8502138 C0,59.7925458 23.6747118,28.5797952 58.1473281,13.4944977 Z M64.3637928,10.9934085 C75.103628,7.04028517 86.7517444,4.60677951 98.9576377,4 L95.4155496,12.7436256 L64.3637868,10.9934107 Z M112.06471,4.05516442 C123.948914,4.74694346 135.292281,7.17121023 145.768781,11.0423005 L115.58445,12.7436256 L112.06471,4.05516442 Z" id="Combined-Shape-Copy-4" fill="#000000"></path>
    </g>
</svg>