<?xml version="1.0" encoding="UTF-8"?>
<svg width="360px" height="360px" viewBox="0 0 360 360" version="1.1" xmlns="http://www.w3.org/2000/svg" xmlns:xlink="http://www.w3.org/1999/xlink">
    <!-- Generator: Sketch 52.3 (67297) - http://www.bohemiancoding.com/sketch -->
    <title>icons-dirty/pomodoro</title>
    <desc>Created with Sketch.</desc>
    <g id="pomodoro" stroke="none" stroke-width="1" fill="none" fill-rule="evenodd">
        <path d="M99.7675531,38.5670272 L152.513605,53.8572364 L117.412322,93.3708339 L180.5625,64.2066361 L243.712678,93.3708339 L208.611395,53.8572364 L260.680517,38.763258 C319.580297,64.6483196 360,117.991015 360,179.594173 C360,266.579021 279.411255,337.094173 180,337.094173 C80.588745,337.094173 0,266.579021 0,179.594173 C0,117.834928 40.6247905,64.378057 99.7675531,38.5670272 Z M110.736746,34.1769108 C128.921606,27.5377173 148.617565,23.434004 169.247754,22.3705309 L163.22733,37.111556 L110.736735,34.1769148 Z M191.902777,22.4330443 C212.171169,23.5908039 231.524351,27.68398 249.412486,34.231464 L197.89767,37.111556 L191.902777,22.4330443 Z" id="Combined-Shape" fill="#000000"></path>
    </g>
</svg>